HIERARCHY
ROOT Hips
{
	OFFSET 0.00000 0.00000 0.00000
	CHANNELS 6 Xposition Yposition Zposition Zrotation Yrotation Xrotation 
	JOINT LHipJoint
	{
		OFFSET 0 0 0
		CHANNELS 3 Zrotation Yrotation Xrotation
		JOINT LeftHip
		{
			OFFSET 1.66553 -1.82942 0.76350
			CHANNELS 3 Zrotation Yrotation Xrotation
			JOINT LeftKnee
			{
				OFFSET 2.41740 -6.64177 0.00000
				CHANNELS 3 Zrotation Yrotation Xrotation
				JOINT LeftAnkle
				{
					OFFSET 2.71614 -7.46254 0.00000
					CHANNELS 3 Zrotation Yrotation Xrotation
					JOINT LeftToe
					{
						OFFSET 0.08005 -0.21993 1.82495
						CHANNELS 3 Zrotation Yrotation Xrotation
						End Site
						{
							OFFSET 0.00000 -0.00000 0.93441
						}
					}
				}
			}
		}
	}
	JOINT RHipJoint
	{
		OFFSET 0 0 0
		CHANNELS 3 Zrotation Yrotation Xrotation
		JOINT RightHip
		{
			OFFSET -1.63725 -1.82942 0.76350
			CHANNELS 3 Zrotation Yrotation Xrotation
			JOINT RightKnee
			{
				OFFSET -2.40538 -6.60872 0.00000
				CHANNELS 3 Zrotation Yrotation Xrotation
				JOINT RightAnkle
				{
					OFFSET -2.73312 -7.50919 0.00000
					CHANNELS 3 Zrotation Yrotation Xrotation
					JOINT RightToe
					{
						OFFSET -0.15567 -0.42769 1.93504
						CHANNELS 3 Zrotation Yrotation Xrotation
						End Site
						{
							OFFSET -0.00000 -0.00000 1.00100
						}
					}
				}
			}
		}
	}
	JOINT lowerback
	{
		OFFSET 0 0 0
		CHANNELS 3 Zrotation Yrotation Xrotation
		JOINT Chest
		{
			OFFSET 0.00326 2.30118 -0.13017
			CHANNELS 3 Zrotation Yrotation Xrotation
			JOINT Chest2
			{
				OFFSET 0.02887 2.30677 0.00834
				CHANNELS 3 Zrotation Yrotation Xrotation
				JOINT lowerneck
				{
					OFFSET 0 0 0
					CHANNELS 3 Zrotation Yrotation Xrotation
					JOINT Neck
					{
						OFFSET 0.12946 1.68326 0.00713
						CHANNELS 3 Zrotation Yrotation Xrotation
						JOINT Head
						{
							OFFSET -0.24364 1.67243 -0.16079
							CHANNELS 3 Zrotation Yrotation Xrotation
							End Site
							{
								OFFSET -0.09229 1.70819 -0.06383
							}
						}
					}
				}
				JOINT LeftCollar
				{
					OFFSET 0 0 0
					CHANNELS 3 Zrotation Yrotation Xrotation
					JOINT LeftShoulder
					{
						OFFSET 3.28104 0.69567 -0.00556
CHANNELS 3 Zrotation Xrotation Yrotation
						JOINT LeftElbow
						{
OFFSET 0 -5.707060 -0.000000
CHANNELS 3 Zrotation Xrotation Yrotation
							JOINT LeftWrist
							{
OFFSET 0 -3.332430 0.000000
CHANNELS 3 Zrotation Xrotation Yrotation
								JOINT lhand
								{
									OFFSET 0 0 0
CHANNELS 3 Zrotation Xrotation Yrotation
									JOINT LFingers
									{
OFFSET 0 -0.792690 0.000000
CHANNELS 3 Zrotation Xrotation Yrotation
										End Site
										{
OFFSET 0 -0.639090 0.000000
										}
									}
								}
								JOINT LThumb
								{
OFFSET 0 0.000000 0.000000
CHANNELS 3 Zrotation Xrotation Yrotation
									End Site
									{
OFFSET 0 -0.648840 0.648840
									}
								}
							}
						}
					}
				}
				JOINT RightCollar
				{
					OFFSET 0 0 0
					CHANNELS 3 Zrotation Yrotation Xrotation
					JOINT RightShoulder
					{
						OFFSET -3.40955 0.64424 0.14010
CHANNELS 3 Zrotation Xrotation Yrotation
						JOINT RightElbow
						{
OFFSET 0 -5.881760 -0.000000
CHANNELS 3 Zrotation Xrotation Yrotation
							JOINT RightWrist
							{
OFFSET 0 -3.281560 0.000000
CHANNELS 3 Zrotation Xrotation Yrotation
								JOINT rhand
								{
									OFFSET 0 0 0
CHANNELS 3 Zrotation Xrotation Yrotation
									JOINT RFingers
									{
OFFSET 0 -0.863130 0.000000
CHANNELS 3 Zrotation Xrotation Yrotation
										End Site
										{
OFFSET 0 -0.695870 0.000000
										}
									}
								}
								JOINT RThumb
								{
OFFSET 0 0.000000 0.000000
CHANNELS 3 Zrotation Xrotation Yrotation
									End Site
									{
OFFSET 0 -0.706500 0.706500
									}
								}
							}
						}
					}
				}
			}
		}
	}
}
MOTION
Frames: 6
Frame Time: 0.008333333333333333
13.250700 16.241700 -15.292600 0.314500 -2.699700 48.524300 0.000000 0.000000 0.000000 3.818100 -5.696700 -83.054700 3.757400 11.830400 35.134600 -0.022800 -4.560600 -2.270100 4.429200 -12.710700 -38.294800 0.000000 0.000000 0.000000 -2.836800 2.845300 -82.245700 -4.059500 -12.239100 36.583200 -0.133000 7.013200 -7.607900 -0.984500 6.315600 -17.702900 0.688700 -1.093500 35.152300 0.383100 -1.046200 0.437500 0.533900 -0.471900 -17.660300 11.195900 7.611900 -3.349500 -24.767100 6.032000 -28.497800 -10.818000 4.108600 -6.480600 -0.000000 0.000000 0.000000 42.082100 -23.992100 -101.494200 28.431200 -39.510200 10.396900 68.298600 26.749900 -8.261000 0.000000 0.000000 0.000000 -7.125000 0.000000 0.000000 39.986700 46.592200 -1.870000 -0.000000 0.000000 0.000000 -39.951000 -25.472900 99.089300 -27.248200 -38.414900 -9.653000 91.886200 126.497500 32.844900 0.000000 0.000000 0.000000 7.125000 0.000000 -0.000000 -37.606600 -55.339100 -54.076700
13.276222 16.280822 -15.276330 -0.124190 -3.086201 48.338235 0.000000 0.000000 0.000000 4.846103 -5.848073 -82.274791 3.749325 11.819166 35.095361 0.019609 -3.230763 -3.163434 4.809212 -13.165267 -39.990999 0.000000 0.000000 0.000000 -0.516618 2.086157 -82.247244 -3.883667 -12.003951 35.746001 0.003427 9.408518 -6.535452 -0.803397 5.719676 -15.973472 0.529742 -1.086862 35.014055 0.397245 -1.101772 0.512086 0.658251 -0.482822 -17.507166 12.341165 8.094088 -4.341794 -25.513451 6.644315 -27.828504 -11.149585 4.287407 -5.838695 0.000000 0.000000 0.000000 41.800887 -24.211626 -101.423967 27.686370 -38.825939 9.926446 66.647873 27.111843 -8.721843 0.000000 0.000000 0.000000 -7.125000 0.000000 0.000000 38.442594 46.747877 -1.943700 0.000000 0.000000 0.000000 -38.801763 -25.903937 99.576905 -25.151831 -36.358695 -8.379774 95.235883 121.009961 31.499954 0.000000 0.000000 0.000000 7.125000 0.000000 0.000000 -44.090185 -59.100184 -62.227661
13.272822 16.282966 -15.255073 -0.793929 -2.851247 48.557655 0.000000 0.000000 0.000000 5.533722 -5.383006 -82.485261 3.781735 11.864215 35.253167 0.017508 -3.424920 -3.180526 4.884964 -13.253070 -40.323300 0.000000 0.000000 0.000000 2.977121 0.860270 -83.051621 -3.722437 -11.781612 34.963669 0.278449 12.524403 -4.369688 -0.230221 3.087853 -8.523515 0.762200 -1.166119 34.693578 0.457110 -1.104108 0.453241 0.596634 -0.501157 -17.445558 11.593968 7.912392 -3.506476 -24.956050 6.424060 -28.533570 -10.936230 4.268372 -6.346976 0.000000 0.000000 0.000000 41.786428 -24.088340 -101.954635 27.263282 -38.429093 9.662281 67.721586 28.407520 -9.177917 0.000000 0.000000 0.000000 -7.125000 0.000000 0.000000 40.454178 48.044916 -3.603342 0.000000 0.000000 0.000000 -37.177601 -26.219121 101.061605 -22.838999 -33.912130 -7.048299 91.978154 126.982779 34.246799 0.000000 0.000000 0.000000 7.125000 0.000000 0.000000 -36.388005 -55.903199 -52.040125
13.280583 16.300864 -15.242930 -0.834701 -2.744700 48.748295 0.000000 0.000000 0.000000 6.481133 -5.914717 -82.121628 3.708478 11.761972 34.895174 0.035616 -2.214920 -3.466811 4.910245 -13.281989 -40.433529 0.000000 0.000000 0.000000 4.439843 0.075203 -83.258850 -3.565269 -11.558297 34.186684 0.393726 13.634230 -3.551119 -0.199994 2.879517 -7.943498 0.624846 -1.062937 34.709456 0.406027 -1.036258 0.485767 0.583212 -0.464234 -17.411552 11.771569 8.016390 -4.053903 -25.219536 6.518875 -28.338782 -11.010421 4.291227 -6.135232 0.000000 0.000000 0.000000 41.643938 -24.550802 -101.993557 27.016281 -38.194753 9.509252 68.263937 29.776928 -9.765537 0.000000 0.000000 0.000000 -7.125000 0.000000 0.000000 42.060610 49.365115 -5.398722 0.000000 0.000000 0.000000 -36.310102 -26.213789 102.339952 -21.718044 -32.656838 -6.433007 96.215846 117.301224 31.640927 0.000000 0.000000 0.000000 7.125000 0.000000 0.000000 -45.655764 -60.301347 -63.894592
13.277823 16.306804 -15.249585 -0.703801 -2.378848 48.992911 0.000000 0.000000 0.000000 6.392279 -6.085832 -82.357422 3.627919 11.648090 34.498187 0.022813 -2.475256 -2.985494 4.638849 -12.964867 -39.237635 0.000000 0.000000 0.000000 3.891541 0.186163 -83.215771 -3.563377 -11.555556 34.177387 0.304184 12.773835 -4.174636 -0.198519 2.869192 -7.914721 0.674698 -1.021020 34.717603 0.318534 -0.978289 0.341968 0.434561 -0.447407 -17.594144 12.282808 7.887179 -3.493718 -25.326452 6.413918 -28.152203 -11.166367 4.221588 -6.161285 0.000000 0.000000 0.000000 40.894054 -24.412255 -102.373634 26.625594 -37.819842 9.268625 67.065487 23.790583 -7.437416 0.000000 0.000000 0.000000 -7.125000 0.000000 0.000000 37.420043 44.504347 0.536090 0.000000 0.000000 0.000000 -36.480415 -25.767785 101.826373 -21.884316 -32.846047 -6.523015 94.583157 121.329791 31.766093 0.000000 0.000000 0.000000 7.125000 0.000000 0.000000 -42.691786 -58.368532 -60.507944
13.285917 16.299258 -15.254821 -0.481173 -1.911492 49.070503 0.000000 0.000000 0.000000 6.042117 -6.253714 -82.527739 3.545007 11.529064 34.085598 0.008265 -3.032140 -2.551715 4.359019 -12.623457 -37.974696 0.000000 0.000000 0.000000 3.636657 -0.093314 -83.262619 -3.601510 -11.610371 34.367206 0.270502 12.457843 -4.442664 -0.194477 2.839795 -7.833111 0.868615 -1.121671 34.781230 0.273653 -1.035958 0.401110 0.305662 -0.488755 -17.552229 11.905054 7.841487 -3.745911 -24.918514 6.406162 -28.076030 -10.920612 4.209921 -6.145798 0.000000 0.000000 0.000000 41.177475 -24.647632 -102.032545 26.752044 -37.941658 9.346281 67.118430 27.477220 -8.802336 0.000000 0.000000 0.000000 -7.125000 0.000000 0.000000 39.149737 47.092427 -2.380455 0.000000 0.000000 0.000000 -36.837556 -25.636150 101.497095 -22.106305 -33.096979 -6.643772 94.160831 122.168182 31.882992 0.000000 0.000000 0.000000 7.125000 0.000000 0.000000 -41.874328 -57.879873 -59.516879
